<?xml version="1.0" encoding="UTF-8" standalone="no"?>
<svg
   xmlns:dc="http://purl.org/dc/elements/1.1/"
   xmlns:cc="http://creativecommons.org/ns#"
   xmlns:rdf="http://www.w3.org/1999/02/22-rdf-syntax-ns#"
   xmlns:svg="http://www.w3.org/2000/svg"
   xmlns="http://www.w3.org/2000/svg"
   viewBox="0 0 305.48001 359.05334"
   height="359.05334"
   width="305.48001"
   xml:space="preserve"
   id="svg2"
   version="1.1"><metadata
     id="metadata8"><rdf:RDF><cc:Work
         rdf:about=""><dc:format>image/svg+xml</dc:format><dc:type
           rdf:resource="http://purl.org/dc/dcmitype/StillImage" /></cc:Work></rdf:RDF></metadata><defs
     id="defs6" /><g
     transform="matrix(1.3333333,0,0,-1.3333333,0,359.05333)"
     id="g10"><g
       transform="scale(0.1)"
       id="g12"><path
         id="path14"
         style="fill:#6ea31b;fill-opacity:1;fill-rule:evenodd;stroke:none"
         d="m 622.656,822.828 c -23.203,0 -49.976,2.543 -87.832,10.16 -25.351,4.684 -46.75,18.934 -60.652,38.973 -13.68,20.32 -17.781,44.988 -11.461,68.23 l 126.922,488.789 c -15.746,-2.88 -29.606,-8.15 -41.156,-16.13 -25.329,-17.61 -39.004,-47.61 -38.309,-83.95 0.652,-48.8 -40.012,-88.94 -91.844,-89.19 -51.66,-1.38 -94.094,37.17 -94.949,86.62 -1.332,93.5 39.953,176.63 114.262,228.62 80.644,55.75 185.785,67.66 296.781,33.04 46.383,-14.67 73.27,-60.28 61.617,-105.16 L 671.492,1004.92 c 18.344,2.6 42.578,5.26 74.797,7 51.703,2.87 95.66,-34.342 98.813,-82.639 2.796,-48.91 -36.649,-90.621 -88.008,-93.73 -32.098,-1.313 -52.699,-4.199 -71.016,-6.973 -22.363,-3.207 -41.316,-5.75 -63.422,-5.75 z m 932.204,-6.687 h -4.92 c -51.42,2.679 -91.42,43.937 -88.47,92.437 l 9.04,164.972 c 2.2,45.23 40.51,80.75 88.19,83.37 108.93,5.26 190.06,43.39 222.99,104.26 21.13,39.65 19.02,84.8 -4.55,119.46 -27.85,40.19 -81.05,59.88 -149.87,55.96 -51.47,-2.98 -95.86,33.82 -99,82.18 -3.04,48.81 36.1,90.55 87.61,93.61 136.12,8.12 251.73,-41.21 317.02,-134.73 60.51,-87.17 66.59,-200.78 15.59,-295.6 -53.7,-99.89 -158.72,-167.27 -295.64,-191.849 l -4.9,-90.621 c -2.65,-46.879 -43.86,-83.449 -93.09,-83.449 z m -256.28,-12.879 c -48.45,0 -89.78,35.859 -93.15,82 -4.71,66.758 -8.62,155.978 -5.56,253.218 -28.76,-7.74 -58.01,-15.49 -88.32,-23.76 -1.88,-80.96 -7.96,-158.708 -16.48,-226.439 -6.47,-47.82 -52.72,-82.722 -104.086,-76.902 -51.203,6.223 -87.55,49.691 -81.496,98.441 6.813,51.371 11.293,103.76 13.594,155.81 -12.91,-3.61 -26.461,-6.74 -39.867,-9.85 -49.875,-11.9 -100.797,16.35 -113.371,63.22 -12.953,47.13 17.113,95.6 67.097,108.02 29.528,7.01 58.02,13.87 86.372,21.29 -5.524,114.9 -22.18,214.63 -49.293,280.18 -18.457,45.42 5.25,96.3 53.437,113.9 48.133,17.5 102.203,-4.79 120.703,-50.14 33.45,-81.81 51.68,-185.99 59.46,-294.96 36.49,9.55 72.04,18.84 107.46,27.66 12.83,91.34 34.52,181.05 69.37,257.65 20.56,44.72 75.4,65.1 122.8,45.73 47.23,-19.45 69.12,-71.24 48.52,-115.98 -18.44,-40.28 -33.17,-88.89 -44.55,-145.68 52.74,9.15 105.15,15.77 158.34,19.22 51.7,3.56 95.59,-33.29 99.41,-81.65 3.23,-48.23 -35.53,-90.55 -86.85,-94.05 -63.56,-3.92 -127.84,-13.71 -193.55,-27.45 -5.15,-87.13 -3.93,-183.369 3.28,-285.318 3.47,-48.762 -35.37,-90.594 -86.84,-94.16 z m 525.62,-9.532 c -41.79,0 -79.79,26.891 -90.15,66.899 -12.64,47.082 17.34,94.922 67.47,106.84 149.38,35.531 251.57,125.341 288.61,251.391 39.21,134.67 -2.53,285.49 -107.02,383.94 -108.52,102.36 -268.73,131.84 -451.55,84.4 -37.93,-9.73 -78.25,4.19 -100.81,34.19 -22.9,30.04 -23.21,70.91 -0.69,101.13 64.88,88.16 79.28,216.92 39.22,344.79 -47.91,150.88 -161.61,274.43 -315.35,342.53 -153.75,-68.1 -267.739,-191.65 -315.496,-342.53 -40.18,-127.87 -25.766,-256.63 39.144,-344.79 22.914,-30.22 22.477,-71.47 -0.805,-101.85 -23.355,-30.49 -64.414,-43.52 -102.218,-32.97 -312.668,87.96 -492.723,-46.29 -557.352,-200.55 -61.351,-147.46 -33.387,-347.29 139.008,-428.26 46.445,-21.41 65.062,-74.312 41.937,-118.39 C 375.391,897.422 319.094,879.641 273.32,900.988 34.2266,1013.58 -64.2969,1292.83 43.4766,1551.87 c 77.1134,184.58 276.8324,364.5 602.8164,337.94 -25.512,102.07 -21.84,216.46 13.508,328.18 67.137,212.71 233.359,383.87 456.269,468.18 12.42,5.37 25.43,7.1 37.86,6.7 12.58,0.4 25.38,-1.33 37.79,-6.7 223.06,-84.31 389.13,-255.47 456.38,-468.18 35.9,-113.55 39.18,-229.65 12.17,-332.52 177.9,8.47 335.48,-45.24 454.94,-157.79 151.09,-142.45 211.67,-361.01 154.95,-556.42 -54.59,-186.682 -208.88,-323.479 -423.09,-374.362 -7.67,-2.32 -15.13,-3.168 -22.87,-3.168 z M 1156.79,0.0390625 h -2.86 C 1140.2,-0.300781 1126.26,1.85156 1112.51,8.17188 963.18,71.8711 865.563,171.66 837.48,288.52 c -7.617,33.359 -9.886,67.25 -6.312,100.339 -66.844,3.493 -114.258,27.653 -143.176,47.539 -82.801,58.332 -124.73,164.301 -106.785,270.622 8.133,48.531 55.848,81.089 106.785,73.539 50.824,-7.778 85.602,-52.661 77.457,-101.231 -6.871,-40.859 6.969,-82.687 33.836,-101.449 40.481,-28.141 108.25,-4.258 145.051,12.902 39.559,17.84 87.554,7.321 114.674,-25.652 26.97,-32.949 25.58,-79.777 -2.93,-111.18 -33.65,-37.437 -46.79,-82.359 -36.33,-126.769 13.05,-53.61 59.9,-103.27 134.18,-141.879 75.24,39.07 122.39,88.269 135.08,141.879 10.48,42.679 -2.46,86.699 -35.9,123.5 -28.73,32.679 -29.56,79.859 -1.22,112.711 28.3,32.898 77.26,42.558 116.82,22.461 55.67,-28.243 98.77,-31.25 128.87,-8.864 32.21,24.364 41.06,67.711 37.72,80.09 -18.64,45.621 5.37,96.211 53.44,113.672 48.29,17.359 102.32,-5.16 121.18,-50.852 34.13,-84.429 -3.46,-204.109 -85.95,-272.75 -24.47,-20.558 -74.19,-53.609 -146.07,-60.168 3.34,-32.511 1.17,-65.878 -6.48,-98.46 C 1443.62,171.66 1345.49,72.1289 1194.98,8.17188 1182.49,2.37891 1169.54,0.0390625 1156.79,0.0390625" /><path
         id="path16"
         style="fill:#6ea31b;fill-opacity:1;fill-rule:nonzero;stroke:none"
         d="m 2213.54,1831 c 7.95,0 13.16,5.19 13.16,13.67 0,8.31 -5.21,13.17 -13.16,13.17 h -14.56 V 1831 Z m -22.16,26.84 h -6.42 v 6.92 h 29.44 c 11.78,0 20.09,-7.97 20.09,-20.09 0,-10.21 -6.23,-16.79 -13.34,-18.53 v -0.34 c 0,0 1.73,-0.69 3.29,-3.64 l 8.84,-17.84 c 1.05,-2.25 3.11,-2.25 5.02,-2.25 h 1.73 v -6.58 h -3.64 c -5.19,0 -7.44,0.34 -9.88,5.19 l -9.87,19.57 c -1.88,3.65 -3.28,4.16 -6.4,4.16 h -11.26 v -28.92 h -7.6 z m 20.08,-83.13 c 30.48,0 53.86,24.07 53.86,55.42 0,31.17 -23.38,55.42 -53.86,55.42 -29.96,0 -53.17,-24.25 -53.17,-55.42 0,-31.35 23.21,-55.42 53.17,-55.42 z m 0,118.11 c 34.29,0 61.65,-27.71 61.65,-62.69 0,-35.16 -27.36,-62.7 -61.65,-62.7 -33.76,0 -60.96,27.54 -60.96,62.7 0,34.98 27.2,62.69 60.96,62.69" /></g></g></svg>